<svg width="530" height="530" viewBox="0 0 530 530" fill="none" xmlns="http://www.w3.org/2000/svg">
<path d="M494.903 335.172H321.18V234.642H494.903V335.172ZM322.24 334.112H493.843V235.702H322.24V334.112Z" fill="#E0E0E0"/>
<path d="M459.065 288.246H344.447V291.606H459.065V288.246Z" fill="#F0F0F0"/>
<path d="M466.962 300.775H344.447V304.443H466.962V300.775Z" fill="#F0F0F0"/>
<path d="M466.962 313.453H344.447V317.12H466.962V313.453Z" fill="#F0F0F0"/>
<path d="M384.504 270.046H344.447V278.769H384.504V270.046Z" fill="#F0F0F0"/>
<path d="M494.373 235.172H321.742V251.178H494.373V235.172Z" fill="#E0E0E0"/>
<path d="M481.092 248.782C480.869 248.57 483.095 245.888 486.052 242.793C489.01 239.698 491.607 237.355 491.819 237.557C492.031 237.758 489.815 240.45 486.858 243.556C483.901 246.662 481.304 248.994 481.092 248.782Z" fill="white"/>
<path d="M491.84 248.782C491.628 248.994 489.042 246.662 486.074 243.556C483.106 240.45 480.89 237.769 481.113 237.557C481.335 237.345 483.911 239.677 486.879 242.793C489.847 245.909 492.041 248.57 491.84 248.782Z" fill="white"/>
<path d="M281.133 36.093H108.502V135.574H281.133V36.093Z" fill="#E6E6E6"/>
<path d="M245.835 89.1779H131.217V92.5381H245.835V89.1779Z" fill="#F0F0F0"/>
<path d="M253.732 101.707H131.217V105.375H253.732V101.707Z" fill="#F0F0F0"/>
<path d="M253.732 114.385H131.217V118.052H253.732V114.385Z" fill="#F0F0F0"/>
<path d="M171.275 70.9777H131.217V79.7015H171.275V70.9777Z" fill="#F0F0F0"/>
<path d="M281.133 36.093H108.502V52.099H281.133V36.093Z" fill="#E0E0E0"/>
<path d="M267.268 49.6292C267.046 49.4278 269.272 46.7354 272.229 43.6402C275.187 40.545 277.784 38.2024 277.996 38.4144C278.208 38.6264 275.992 41.3082 273.035 44.4034C270.077 47.4986 267.48 49.82 267.268 49.6292Z" fill="white"/>
<path d="M277.996 49.6292C277.784 49.8412 275.197 47.5092 272.229 44.4034C269.261 41.2976 267.046 38.6264 267.268 38.4144C267.491 38.2024 270.067 40.5344 273.035 43.6402C276.003 46.746 278.218 49.4278 277.996 49.6292Z" fill="white"/>
<path d="M215.752 220.893H42.0608V120.352H215.752V220.893ZM43.1208 219.833H214.692V121.412H43.1208V219.833Z" fill="#E0E0E0"/>
<path d="M179.924 173.967H65.3065V177.327H179.924V173.967Z" fill="#F0F0F0"/>
<path d="M187.821 186.496H65.3065V190.164H187.821V186.496Z" fill="#F0F0F0"/>
<path d="M187.821 199.174H65.3065V202.842H187.821V199.174Z" fill="#F0F0F0"/>
<path d="M105.364 155.767H65.3065V164.491H105.364V155.767Z" fill="#F0F0F0"/>
<path d="M215.222 120.882H42.5908V136.888H215.222V120.882Z" fill="#E0E0E0"/>
<path d="M416.209 243.927H212.371V426.417H416.209V243.927Z" fill="#E6E6E6"/>
<path d="M222.621 186.443H62.9427V352.344H222.621V186.443Z" fill="#F0F0F0"/>
<path d="M222.621 186.443H62.9427V204.516H222.621V186.443Z" fill="#E0E0E0"/>
<path d="M76.1293 195.294C76.1002 195.95 75.8793 196.582 75.494 197.113C75.1088 197.644 74.5761 198.05 73.962 198.281C73.348 198.512 72.6796 198.558 72.0399 198.412C71.4003 198.267 70.8174 197.936 70.3637 197.463C69.9099 196.989 69.6053 196.392 69.4877 195.747C69.37 195.101 69.4444 194.436 69.7017 193.832C69.9591 193.229 70.3879 192.714 70.9351 192.352C71.4822 191.99 72.1236 191.797 72.7797 191.796C73.6869 191.819 74.5484 192.199 75.176 192.854C75.8036 193.51 76.1463 194.387 76.1293 195.294V195.294Z" fill="white"/>
<path d="M89.7291 195.294C89.702 195.953 89.4819 196.589 89.0962 197.123C88.7105 197.658 88.1761 198.067 87.5596 198.3C86.9432 198.533 86.2718 198.579 85.629 198.434C84.9863 198.288 84.4005 197.957 83.9447 197.481C83.4889 197.005 83.1832 196.405 83.0655 195.757C82.9478 195.108 83.0234 194.439 83.2829 193.834C83.5424 193.228 83.9743 192.712 84.5249 192.349C85.0755 191.987 85.7204 191.795 86.3794 191.796C87.2866 191.819 88.1482 192.199 88.7758 192.854C89.4034 193.51 89.7461 194.387 89.7291 195.294V195.294Z" fill="white"/>
<path d="M103.329 195.294C103.302 195.953 103.082 196.589 102.696 197.123C102.31 197.658 101.776 198.067 101.159 198.3C100.543 198.533 99.8715 198.579 99.2287 198.434C98.586 198.288 98.0003 197.957 97.5445 197.481C97.0887 197.005 96.7829 196.405 96.6652 195.757C96.5475 195.108 96.6231 194.439 96.8826 193.834C97.1421 193.228 97.574 192.712 98.1246 192.349C98.6752 191.987 99.3201 191.795 99.9792 191.796C100.886 191.819 101.748 192.199 102.376 192.854C103.003 193.51 103.346 194.387 103.329 195.294V195.294Z" fill="white"/>
<path d="M472.103 72.3768H268.265V275.536H472.103V72.3768Z" fill="#F0F0F0"/>
<path d="M472.103 72.3768H268.265V96.1738H472.103V72.3768Z" fill="#E0E0E0"/>
<path d="M285.628 84.0368C285.59 84.9019 285.3 85.737 284.792 86.4384C284.284 87.1397 283.581 87.6765 282.771 87.982C281.961 88.2875 281.078 88.3482 280.234 88.1567C279.389 87.9652 278.62 87.5299 278.021 86.9048C277.421 86.2797 277.019 85.4924 276.863 84.6405C276.708 83.7887 276.806 82.9099 277.145 82.1133C277.484 81.3167 278.05 80.6373 278.773 80.1595C279.495 79.6817 280.341 79.4266 281.207 79.4258C282.404 79.4536 283.541 79.9544 284.37 80.8186C285.198 81.6827 285.65 82.8399 285.628 84.0368V84.0368Z" fill="white"/>
<path d="M302.238 80.9204C302.825 81.5586 303.212 82.3556 303.35 83.212C303.488 84.0685 303.371 84.9467 303.013 85.737C302.656 86.5274 302.073 87.195 301.339 87.6567C300.604 88.1185 299.75 88.3539 298.883 88.3336C298.016 88.3134 297.174 88.0384 296.462 87.5429C295.75 87.0474 295.199 86.3534 294.879 85.5472C294.558 84.741 294.482 83.8584 294.66 83.0093C294.837 82.1601 295.261 81.3821 295.878 80.772C296.742 79.9499 297.896 79.5039 299.089 79.5317C300.281 79.5596 301.413 80.0589 302.238 80.9204V80.9204Z" fill="white"/>
<path d="M321.434 84.0368C321.397 84.9019 321.106 85.737 320.598 86.4384C320.091 87.1397 319.388 87.6765 318.578 87.982C317.767 88.2875 316.885 88.3482 316.041 88.1567C315.196 87.9652 314.427 87.5299 313.827 86.9048C313.228 86.2797 312.826 85.4924 312.67 84.6405C312.514 83.7887 312.612 82.9099 312.952 82.1133C313.291 81.3167 313.857 80.6373 314.579 80.1595C315.302 79.6817 316.148 79.4266 317.014 79.4258C318.211 79.4536 319.348 79.9544 320.176 80.8186C321.005 81.6827 321.457 82.8399 321.434 84.0368V84.0368Z" fill="white"/>
<path d="M428.07 480.318C428.07 480.466 354.464 480.593 263.696 480.593C172.928 480.593 99.2902 480.466 99.2902 480.318C99.2902 480.169 172.886 480.042 263.696 480.042C354.506 480.042 428.07 480.18 428.07 480.318Z" fill="#263238"/>
<path d="M356.351 350.553C339.974 339.115 336.264 317.883 336.91 298.793C337.016 295.613 336.667 292.242 338.182 289.454C339.698 286.666 343.239 284.748 346.09 286.083C348.454 287.196 349.482 289.952 350.807 292.231C352.575 295.267 355.166 297.74 358.28 299.365C360.305 300.425 362.817 301.061 364.82 299.959C367.576 298.443 367.894 294.659 367.873 291.479C367.873 285.564 367.838 279.656 367.767 273.756C367.577 270.587 367.899 267.409 368.721 264.343C369.707 261.332 371.901 258.545 374.901 257.697C377.901 256.849 381.642 258.598 382.321 261.693C382.438 263.004 382.469 264.321 382.416 265.636C382.501 266.961 383.116 268.413 384.356 268.816C385.596 269.219 386.889 268.297 387.843 267.364C391.108 264.184 393.334 260.039 395.401 255.948C397.468 251.856 399.493 247.648 402.461 244.16C405.429 240.673 409.531 237.906 414.121 237.641C418.711 237.376 423.491 240.196 424.636 244.648C425.781 249.1 423.184 253.647 420.396 257.262C416.189 262.627 411.23 267.358 405.673 271.307C404.588 271.899 403.722 272.825 403.203 273.946C402.514 276.066 404.517 278.186 406.605 278.854C408.969 279.639 411.534 279.395 414.025 279.692C416.516 279.988 419.166 281.07 420.11 283.402C421.403 286.645 418.689 290.037 416.029 292.263C410.686 296.715 404.62 300.218 398.094 302.619C395.762 303.467 393.313 304.22 391.426 305.852C389.539 307.485 388.416 310.336 389.55 312.573C390.684 314.809 393.599 315.52 396.048 315.064C398.496 314.608 400.669 313.294 403.001 312.414C407.358 310.771 412.976 311.068 415.721 314.831C416.572 316.127 417.11 317.603 417.294 319.142C417.478 320.682 417.303 322.243 416.781 323.703C415.721 326.609 414.088 329.272 411.98 331.536C405.037 339.831 396.017 346.134 385.84 349.8C375.738 353.298 366.378 354.252 356.34 350.574" fill="#FD7401"/>
<path d="M419.972 240.26C419.972 240.26 419.877 240.366 419.665 240.556L418.721 241.394C417.895 242.136 416.676 243.217 415.139 244.648C410.781 248.694 406.734 253.063 403.033 257.718C400.67 260.654 398.221 263.982 395.613 267.597C393.006 271.212 390.313 275.112 387.642 279.257C384.794 283.628 382.186 288.15 379.83 292.804C378.6 295.231 377.519 297.765 376.406 300.351L373.12 308.248C368.789 318.195 365.016 328.376 361.821 338.744C359.246 347.227 357.472 355.932 356.521 364.746C355.904 370.694 355.805 376.684 356.224 382.649C356.393 384.769 356.552 386.391 356.701 387.494C356.764 388.024 356.807 388.448 356.849 388.755V389.19C356.803 389.052 356.772 388.91 356.754 388.766C356.701 388.458 356.637 388.045 356.552 387.515C356.362 386.455 356.16 384.78 355.969 382.66C355.458 376.684 355.493 370.673 356.075 364.704C356.968 355.852 358.703 347.107 361.259 338.585C364.428 328.188 368.19 317.981 372.527 308.015L375.897 300.15C377.01 297.574 378.102 295.019 379.342 292.581C381.715 287.913 384.344 283.38 387.218 279.003C389.932 274.763 392.667 270.925 395.242 267.343C397.818 263.76 400.309 260.41 402.662 257.485C406.401 252.842 410.502 248.504 414.927 244.51C416.495 243.1 417.746 242.04 418.594 241.33L419.58 240.535C419.701 240.43 419.832 240.338 419.972 240.26V240.26Z" fill="#263238"/>
<path d="M379.48 292.56C379.331 292.123 379.228 291.672 379.173 291.214C379.003 290.334 378.812 289.094 378.59 287.483C378.134 284.303 377.668 279.946 377.169 275.123C376.671 270.3 376.109 265.933 375.643 262.785C375.399 261.216 375.187 259.954 375.039 259.075C374.923 258.624 374.862 258.162 374.859 257.697C375.041 258.121 375.173 258.566 375.251 259.022C375.484 259.891 375.749 261.142 376.046 262.721C376.65 265.901 377.243 270.226 377.742 275.059C378.24 279.893 378.664 284.133 378.993 287.43C379.152 288.914 379.289 290.175 379.395 291.182C379.478 291.636 379.506 292.099 379.48 292.56V292.56Z" fill="#263238"/>
<path d="M420.269 284.949C419.753 285.062 419.228 285.125 418.7 285.14C417.64 285.235 416.135 285.363 414.269 285.575C410.538 285.977 405.408 286.719 399.779 287.779C394.15 288.839 389.094 290.037 385.458 290.959C383.646 291.426 382.183 291.85 381.218 292.136C380.703 292.319 380.17 292.447 379.628 292.518C380.118 292.271 380.629 292.069 381.155 291.913C382.151 291.564 383.593 291.076 385.395 290.557C389.009 289.497 394.066 288.235 399.715 287.154C404.501 286.239 409.33 285.567 414.184 285.14C416.061 284.981 417.576 284.917 418.636 284.896C419.181 284.859 419.728 284.877 420.269 284.949Z" fill="#263238"/>
<path d="M361.778 337.843C361.665 337.69 361.572 337.522 361.502 337.345L360.803 335.872C360.199 334.589 359.382 332.692 358.407 330.37C356.436 325.706 353.923 319.177 351.252 311.926C348.581 304.676 346.122 298.146 344.256 293.429C343.345 291.14 342.592 289.263 342.03 287.864L341.437 286.348C341.354 286.174 341.297 285.988 341.267 285.797C341.38 285.951 341.473 286.118 341.543 286.295L342.242 287.769C342.836 289.051 343.663 290.949 344.638 293.27C346.609 297.934 349.122 304.464 351.793 311.714C354.464 318.965 356.923 325.494 358.789 330.211C359.7 332.501 360.453 334.377 361.004 335.776C361.248 336.38 361.449 336.836 361.608 337.292C361.691 337.467 361.748 337.652 361.778 337.843V337.843Z" fill="#263238"/>
<path d="M415.923 320.385C415.753 320.482 415.571 320.557 415.382 320.608L413.813 321.138L408.015 323.014C403.118 324.604 396.355 326.872 388.935 329.374C381.515 331.875 374.721 334.101 369.792 335.585C367.332 336.338 365.329 336.91 363.94 337.292L362.34 337.705C362.154 337.765 361.962 337.804 361.767 337.822C361.937 337.725 362.119 337.65 362.308 337.599L363.877 337.069L369.675 335.193C374.572 333.603 381.335 331.335 388.755 328.833C396.175 326.332 402.959 324.106 407.888 322.622C410.358 321.869 412.351 321.297 413.75 320.915L415.35 320.502C415.537 320.442 415.728 320.403 415.923 320.385V320.385Z" fill="#263238"/>
<path d="M393.832 63.2608L388.373 65.2112L386.031 58.0774C381.727 44.9228 368.011 37.9374 355.407 42.3788C342.804 46.8202 336.094 61.2468 340.398 74.4014L342.74 81.5352L337.26 83.4962C335.171 84.3067 333.474 85.8913 332.522 87.9207C331.57 89.9501 331.438 92.2681 332.151 94.393L347.341 140.81C347.656 141.862 348.18 142.84 348.88 143.686C349.581 144.531 350.444 145.227 351.419 145.732C352.394 146.238 353.461 146.542 354.556 146.627C355.65 146.712 356.751 146.576 357.792 146.227L414.365 125.992C416.482 125.182 418.203 123.584 419.166 121.532C420.128 119.48 420.258 117.134 419.527 114.989L404.326 68.5714C404.003 67.5224 403.471 66.5494 402.764 65.7104C402.056 64.8714 401.186 64.1835 400.207 63.6879C399.228 63.1923 398.158 62.899 397.063 62.8256C395.968 62.7522 394.869 62.9002 393.832 63.2608V63.2608ZM350.712 70.6808C349.551 67.2604 349.759 63.5236 351.293 60.2534C352.826 56.9832 355.566 54.4332 358.937 53.1378C360.602 52.5682 362.365 52.3397 364.12 52.4661C365.875 52.5925 367.586 53.0712 369.152 53.8735C370.718 54.6758 372.107 55.7853 373.235 57.1359C374.362 58.4865 375.207 60.0504 375.717 61.7344L378.049 68.8682L353.044 77.8146L350.712 70.6808ZM382.512 111.872L386.391 123.723C386.462 123.961 386.439 124.217 386.327 124.438C386.214 124.659 386.021 124.828 385.787 124.91L380.349 126.85C380.133 126.91 379.902 126.884 379.704 126.777C379.506 126.671 379.358 126.492 379.289 126.278L375.378 114.48C373.221 114.362 371.152 113.589 369.447 112.263C367.742 110.937 366.483 109.121 365.838 107.06C364.916 104.335 365.084 101.358 366.307 98.7542C367.53 96.15 369.713 94.12 372.399 93.0892C373.725 92.636 375.129 92.4546 376.527 92.5555C377.925 92.6565 379.288 93.0378 380.535 93.6768C381.783 94.3158 382.889 95.1994 383.787 96.2749C384.686 97.3503 385.359 98.5957 385.766 99.9368C386.448 102.031 386.504 104.278 385.928 106.404C385.352 108.53 384.168 110.441 382.522 111.904L382.512 111.872Z" fill="#FD7401"/>
<path d="M388.13 65.084C388.13 65.2324 378.007 69.0378 365.414 73.564C352.821 78.0902 342.55 81.726 342.497 81.62C342.444 81.514 352.62 77.6768 365.223 73.14C377.826 68.6032 388.077 64.9462 388.13 65.084Z" fill="#263238"/>
<path d="M400.15 67.0344C400.197 67.1264 400.236 67.2221 400.266 67.3206C400.351 67.5326 400.447 67.8082 400.574 68.1474C400.849 68.9212 401.231 69.9918 401.708 71.3274L405.779 83.1782C407.475 88.2026 409.499 94.1598 411.746 100.774C412.806 104.092 414.057 107.548 415.223 111.183C415.847 113.057 416.117 115.03 416.018 117.003C415.928 118.029 415.636 119.026 415.16 119.939C414.65 120.849 413.97 121.651 413.156 122.303C411.518 123.498 409.701 124.425 407.771 125.048L402.312 127.009L391.977 130.709L374.477 136.941L362.658 141.097L359.478 142.157L358.63 142.432C358.539 142.473 358.442 142.498 358.344 142.506C358.344 142.506 358.428 142.506 358.609 142.379L359.435 142.051L362.615 140.853L374.371 136.528L391.84 130.168L402.153 126.437L407.612 124.465C409.487 123.867 411.252 122.969 412.838 121.805C413.595 121.2 414.229 120.455 414.704 119.61C415.153 118.766 415.423 117.839 415.499 116.886C415.596 114.986 415.337 113.084 414.736 111.279C413.591 107.675 412.382 104.187 411.291 100.87C409.086 94.2446 407.05 88.2662 405.439 83.2418C403.828 78.2174 402.471 74.1788 401.539 71.338C401.093 69.9494 400.754 68.8682 400.479 68.0838L400.224 67.2358C400.192 67.1716 400.167 67.1041 400.15 67.0344V67.0344Z" fill="#263238"/>
<path d="M370.3 52.417C370.3 52.417 369.739 52.1414 368.7 51.7174C367.219 51.1485 365.653 50.8331 364.068 50.7846C361.717 50.704 359.379 51.1457 357.22 52.0778C354.595 53.2385 352.35 55.1158 350.743 57.4944C349.126 59.8662 348.258 62.669 348.252 65.5398C348.274 67.8927 348.631 70.2305 349.312 72.4828C349.864 74.412 350.436 75.949 350.818 77.0196C351.043 77.5634 351.227 78.1232 351.369 78.6944C351.068 78.186 350.816 77.65 350.616 77.0938C350.182 76.0338 349.556 74.5286 348.941 72.5888C348.187 70.3128 347.776 67.937 347.722 65.5398C347.694 62.5606 348.582 59.6447 350.266 57.187C351.929 54.7215 354.265 52.7861 356.997 51.6114C359.223 50.6742 361.635 50.2607 364.046 50.403C365.666 50.4855 367.257 50.8627 368.742 51.516C369.139 51.6991 369.522 51.9117 369.887 52.152C370.038 52.2182 370.177 52.3076 370.3 52.417V52.417Z" fill="#263238"/>
<path d="M370.788 93.8948C370.957 93.7923 371.134 93.7037 371.318 93.6298C371.849 93.3904 372.398 93.1954 372.961 93.0468C373.854 92.7831 374.776 92.6266 375.706 92.5804C376.972 92.5124 378.238 92.7036 379.427 93.1422C382.141 94.0962 384.632 96.8628 385.861 100.562C386.451 102.548 386.451 104.661 385.861 106.647C385.207 108.801 384.035 110.763 382.448 112.36L382.512 112.074C383.921 115.943 385.458 120.14 387.048 124.518L387.144 124.783L386.879 124.879L384.451 125.684L379.151 127.454L378.886 127.539L378.802 127.274C377.349 122.886 375.759 118.794 374.562 114.777L374.795 114.957C372.722 114.785 370.747 114.007 369.113 112.72C367.635 111.582 366.423 110.135 365.562 108.48C364.785 107.013 364.398 105.37 364.439 103.71C364.488 102.014 364.911 100.349 365.679 98.8354C366.447 97.3217 367.54 95.9966 368.88 94.9548C369.432 94.5071 370.05 94.1493 370.714 93.8948C370.115 94.2501 369.535 94.6357 368.975 95.0502C367.503 96.2956 366.376 97.8978 365.7 99.7036C365.12 101.065 364.849 102.539 364.906 104.018C364.962 105.497 365.346 106.945 366.029 108.258C366.875 109.85 368.058 111.239 369.495 112.328C371.053 113.551 372.937 114.289 374.911 114.448H375.092L375.145 114.607C376.311 118.55 377.911 122.674 379.385 127.083L379.035 126.914L384.335 125.144L386.752 124.327L386.582 124.688C385.003 120.31 383.476 116.102 382.077 112.233V112.074L382.204 111.947C383.745 110.416 384.894 108.536 385.554 106.466C386.116 104.567 386.116 102.546 385.554 100.647C384.398 97.0854 382.013 94.3824 379.427 93.4284C378.282 92.987 377.06 92.7815 375.834 92.8242C374.918 92.8452 374.008 92.9697 373.12 93.1952C371.541 93.5874 370.799 93.9478 370.788 93.8948Z" fill="#263238"/>
<path d="M338.023 399.959L232.14 399.472C226.025 399.438 220.174 396.979 215.871 392.634C211.568 388.29 209.166 382.415 209.191 376.3L210.315 110.865C210.327 107.836 210.937 104.839 212.108 102.045C213.28 99.2512 214.99 96.7157 217.142 94.5834C219.294 92.4511 221.845 90.7639 224.65 89.6181C227.454 88.4723 230.457 87.8905 233.486 87.9058L339.359 88.3934C345.474 88.4243 351.326 90.8808 355.631 95.2234C359.936 99.566 362.341 105.44 362.319 111.554L361.195 376.978C361.182 380.009 360.573 383.007 359.402 385.802C358.231 388.597 356.52 391.134 354.369 393.268C352.217 395.402 349.666 397.091 346.862 398.239C344.057 399.387 341.054 399.972 338.023 399.959V399.959Z" fill="#455A64"/>
<path d="M339.2 97.52H318.678C318.009 97.5324 317.348 97.6766 316.734 97.9444C316.121 98.2121 315.565 98.5982 315.101 99.0805C314.636 99.5629 314.271 100.132 314.027 100.755C313.782 101.379 313.663 102.044 313.675 102.714V106.435C313.688 107.104 313.568 107.769 313.324 108.391C313.079 109.014 312.714 109.583 312.249 110.064C311.784 110.546 311.229 110.931 310.615 111.197C310.001 111.464 309.341 111.607 308.672 111.618L268.668 111.438C267.314 111.402 266.031 110.83 265.099 109.848C264.166 108.866 263.662 107.555 263.696 106.201V102.481C263.73 101.129 263.228 99.8192 262.298 98.8376C261.368 97.8561 260.087 97.2832 258.735 97.2444H251.517L233.55 97.1596C229.276 97.1341 225.167 98.8031 222.121 101.801C219.076 104.799 217.342 108.882 217.3 113.155L216.24 372.24C216.23 374.36 216.638 376.461 217.44 378.424C218.243 380.386 219.424 382.171 220.916 383.677C222.408 385.183 224.182 386.381 226.137 387.201C228.092 388.021 230.19 388.448 232.31 388.458L337.97 388.946C340.092 388.956 342.194 388.547 344.158 387.745C346.122 386.942 347.908 385.76 349.415 384.267C350.922 382.774 352.12 380.998 352.941 379.042C353.762 377.086 354.189 374.987 354.199 372.866L355.259 113.78C355.284 109.495 353.607 105.375 350.596 102.326C347.584 99.2766 343.485 97.548 339.2 97.52V97.52Z" fill="white"/>
<path d="M324.985 354.379L246.418 354.04C245.602 354.04 244.945 353.15 244.955 352.068L245.04 331.515C245.04 330.455 245.708 329.543 246.524 329.543L325.091 329.904C325.544 329.982 325.948 330.232 326.221 330.601C326.493 330.971 326.613 331.431 326.554 331.886L326.48 352.418C326.48 353.51 325.802 354.39 324.985 354.379Z" fill="#FD7401"/>
<path d="M272.738 340.044C272.695 339.674 272.517 339.387 272.206 339.183C271.894 338.978 271.512 338.876 271.06 338.876C270.729 338.876 270.439 338.929 270.191 339.037C269.945 339.144 269.753 339.291 269.614 339.478C269.478 339.666 269.41 339.878 269.41 340.117C269.41 340.316 269.457 340.488 269.552 340.631C269.649 340.773 269.774 340.891 269.924 340.986C270.075 341.078 270.233 341.155 270.399 341.215C270.564 341.274 270.716 341.321 270.855 341.358L271.614 341.562C271.809 341.613 272.026 341.684 272.264 341.774C272.505 341.864 272.735 341.987 272.954 342.143C273.175 342.296 273.358 342.493 273.501 342.734C273.645 342.975 273.717 343.27 273.717 343.621C273.717 344.025 273.611 344.39 273.399 344.716C273.19 345.042 272.883 345.301 272.479 345.493C272.078 345.685 271.59 345.781 271.016 345.781C270.48 345.781 270.017 345.695 269.625 345.522C269.236 345.35 268.929 345.109 268.705 344.8C268.484 344.491 268.359 344.132 268.329 343.723H269.264C269.288 344.005 269.383 344.239 269.549 344.424C269.716 344.606 269.928 344.742 270.184 344.832C270.441 344.92 270.719 344.964 271.016 344.964C271.361 344.964 271.671 344.908 271.946 344.796C272.221 344.682 272.439 344.523 272.6 344.321C272.76 344.117 272.841 343.879 272.841 343.606C272.841 343.358 272.771 343.156 272.633 343C272.494 342.845 272.311 342.718 272.085 342.621C271.859 342.523 271.614 342.438 271.352 342.365L270.432 342.102C269.848 341.934 269.385 341.695 269.045 341.383C268.704 341.072 268.534 340.664 268.534 340.161C268.534 339.742 268.647 339.377 268.873 339.066C269.102 338.752 269.409 338.509 269.793 338.336C270.18 338.161 270.612 338.073 271.089 338.073C271.571 338.073 271.999 338.159 272.373 338.332C272.748 338.502 273.045 338.736 273.264 339.033C273.485 339.33 273.602 339.667 273.614 340.044H272.738ZM276.11 338.175V345.65H275.205V338.175H276.11ZM283.852 338.175V345.65H282.976L278.903 339.781H278.83V345.65H277.925V338.175H278.801L282.889 344.059H282.962V338.175H283.852ZM290.773 340.511C290.693 340.265 290.587 340.045 290.456 339.85C290.327 339.653 290.172 339.485 289.992 339.347C289.815 339.208 289.613 339.102 289.386 339.029C289.16 338.956 288.912 338.92 288.642 338.92C288.199 338.92 287.796 339.034 287.434 339.263C287.071 339.492 286.783 339.829 286.569 340.274C286.354 340.719 286.247 341.265 286.247 341.913C286.247 342.56 286.356 343.106 286.572 343.551C286.789 343.997 287.082 344.334 287.452 344.562C287.822 344.791 288.238 344.905 288.7 344.905C289.128 344.905 289.506 344.814 289.832 344.632C290.16 344.447 290.416 344.186 290.598 343.851C290.783 343.512 290.875 343.115 290.875 342.657L291.153 342.716H288.905V341.913H291.751V342.716C291.751 343.331 291.62 343.866 291.357 344.321C291.097 344.776 290.737 345.129 290.277 345.38C289.819 345.628 289.294 345.752 288.7 345.752C288.038 345.752 287.457 345.596 286.955 345.285C286.457 344.974 286.067 344.531 285.788 343.956C285.51 343.382 285.371 342.701 285.371 341.913C285.371 341.321 285.451 340.79 285.609 340.318C285.769 339.843 285.996 339.439 286.288 339.106C286.58 338.773 286.925 338.517 287.324 338.339C287.723 338.162 288.162 338.073 288.642 338.073C289.036 338.073 289.403 338.133 289.744 338.252C290.087 338.369 290.392 338.535 290.66 338.752C290.93 338.966 291.155 339.223 291.335 339.522C291.515 339.819 291.639 340.149 291.708 340.511H290.773ZM273.556 350.175H274.461V355.124C274.461 355.635 274.341 356.092 274.1 356.493C273.861 356.892 273.524 357.207 273.089 357.438C272.653 357.667 272.142 357.781 271.556 357.781C270.97 357.781 270.459 357.667 270.023 357.438C269.587 357.207 269.249 356.892 269.008 356.493C268.77 356.092 268.651 355.635 268.651 355.124V350.175H269.556V355.051C269.556 355.416 269.636 355.741 269.797 356.026C269.957 356.308 270.186 356.531 270.483 356.694C270.782 356.854 271.14 356.935 271.556 356.935C271.972 356.935 272.33 356.854 272.629 356.694C272.928 356.531 273.157 356.308 273.315 356.026C273.476 355.741 273.556 355.416 273.556 355.051V350.175ZM276.269 357.65V350.175H278.794C279.381 350.175 279.86 350.281 280.232 350.493C280.607 350.702 280.885 350.985 281.065 351.343C281.245 351.701 281.335 352.1 281.335 352.54C281.335 352.981 281.245 353.381 281.065 353.741C280.887 354.101 280.612 354.388 280.24 354.602C279.868 354.814 279.391 354.92 278.809 354.92H276.999V354.117H278.78C279.181 354.117 279.504 354.048 279.747 353.909C279.99 353.77 280.167 353.583 280.276 353.347C280.388 353.108 280.444 352.84 280.444 352.54C280.444 352.241 280.388 351.973 280.276 351.737C280.167 351.501 279.989 351.316 279.743 351.183C279.498 351.046 279.172 350.978 278.765 350.978H277.174V357.65H276.269Z" fill="#E8E8E3"/>
<path d="M262.089 173.681L234.826 173.557L234.804 178.561L262.067 178.684L262.089 173.681Z" fill="#FD7401"/>
<path opacity="0.1" d="M262.089 173.681L234.826 173.557L234.804 178.561L262.067 178.684L262.089 173.681Z" fill="black"/>
<path d="M342.009 204.4C342.223 204.378 342.433 204.328 342.634 204.251C342.928 204.137 343.183 203.942 343.37 203.688C343.558 203.435 343.67 203.134 343.694 202.82C343.694 201.135 343.694 198.676 343.694 195.517C343.694 193.938 343.694 192.167 343.694 190.217C343.694 189.74 343.694 189.242 343.694 188.744C343.764 188.26 343.658 187.768 343.398 187.355C343.252 187.157 343.062 186.996 342.843 186.883C342.624 186.771 342.382 186.711 342.136 186.708H340.483H325.166L236.507 186.38C236.28 186.376 236.056 186.427 235.853 186.528C235.65 186.63 235.474 186.779 235.341 186.963C235.085 187.377 234.987 187.87 235.066 188.351C235.066 189.411 235.066 190.471 235.066 191.531C235.066 193.651 235.066 195.771 235.066 197.891C235.066 198.951 235.066 200.011 235.066 201.071C235.022 201.565 235.022 202.062 235.066 202.555C235.121 202.767 235.225 202.963 235.368 203.128C235.512 203.294 235.691 203.424 235.892 203.509C236.101 203.592 236.325 203.632 236.55 203.626H241.945L265.488 203.753L305.344 203.997L332.215 204.209L339.518 204.294H341.415C341.85 204.294 342.062 204.294 342.062 204.294H341.415H339.518H332.215H305.344L265.488 204.167L241.945 204.071H236.55C236.253 204.083 235.957 204.033 235.68 203.923C235.401 203.804 235.153 203.622 234.955 203.393C234.756 203.163 234.613 202.891 234.536 202.598C234.474 202.32 234.453 202.034 234.472 201.75V200.965C234.472 199.905 234.472 198.845 234.472 197.785C234.472 195.665 234.472 193.545 234.472 191.425C234.472 190.365 234.472 189.305 234.472 188.245C234.452 187.963 234.452 187.68 234.472 187.397C234.512 187.086 234.632 186.79 234.822 186.539C235.005 186.283 235.247 186.075 235.527 185.933C235.808 185.791 236.119 185.719 236.433 185.723L325.091 186.21L340.408 186.316H342.062C342.353 186.316 342.64 186.387 342.899 186.522C343.157 186.656 343.379 186.851 343.546 187.09C343.845 187.551 343.966 188.105 343.885 188.648C343.885 189.146 343.885 189.645 343.885 190.122C343.885 192.051 343.885 193.821 343.885 195.422C343.885 198.602 343.811 201.04 343.79 202.736C343.764 203.062 343.645 203.374 343.448 203.635C343.251 203.896 342.983 204.095 342.677 204.209C342.476 204.333 342.245 204.399 342.009 204.4V204.4Z" fill="#E0E0E0"/>
<path d="M292.878 191.701H243.016V196.376H292.878V191.701Z" fill="#FD7401"/>
<path opacity="0.2" d="M292.878 191.701H243.016V196.376H292.878V191.701Z" fill="white"/>
<path d="M261.903 219.324L234.641 219.2L234.618 224.203L261.881 224.327L261.903 219.324Z" fill="#FD7401"/>
<path opacity="0.1" d="M261.903 219.324L234.641 219.2L234.618 224.203L261.881 224.327L261.903 219.324Z" fill="black"/>
<path d="M341.32 250.043C341.534 250.017 341.746 249.978 341.956 249.927C342.252 249.833 342.524 249.676 342.755 249.467C342.985 249.259 343.168 249.004 343.292 248.718C343.458 248.29 343.524 247.83 343.482 247.372C343.482 246.863 343.482 246.312 343.482 245.697C343.482 244.468 343.482 243.069 343.482 241.457V234.726C343.533 234.239 343.425 233.748 343.175 233.327C342.914 232.895 342.502 232.574 342.02 232.426C341.492 232.332 340.954 232.303 340.419 232.341H325.166L236.815 232.013C236.339 232.014 235.881 232.188 235.524 232.501C235.167 232.815 234.936 233.248 234.875 233.719C234.875 234.726 234.875 235.839 234.875 236.899C234.875 239.019 234.875 241.139 234.875 243.259C234.875 244.319 234.875 245.379 234.875 246.439C234.835 246.935 234.857 247.433 234.938 247.923C235.071 248.353 235.343 248.726 235.712 248.983C236.104 249.232 236.564 249.351 237.027 249.323H238.5H241.563L265.021 249.439L304.739 249.683L331.515 249.895L338.797 249.98H340.695H341.331H340.695H338.797H331.515H304.739L265 249.937L241.542 249.853H236.931C236.358 249.887 235.789 249.734 235.309 249.418C234.827 249.084 234.475 248.593 234.313 248.029C234.218 247.491 234.189 246.943 234.228 246.397C234.228 245.337 234.228 244.277 234.228 243.217C234.228 241.097 234.228 238.977 234.228 236.857C234.228 235.797 234.228 234.737 234.228 233.677C234.305 233.071 234.601 232.514 235.06 232.11C235.518 231.706 236.108 231.483 236.719 231.483L325.07 231.97L340.324 232.087C340.892 232.052 341.462 232.091 342.02 232.204C342.57 232.384 343.035 232.761 343.323 233.264C343.598 233.73 343.716 234.272 343.663 234.811C343.663 235.309 343.663 235.797 343.663 236.285C343.663 238.203 343.663 239.963 343.663 241.585C343.663 243.206 343.663 244.574 343.663 245.825C343.663 246.429 343.663 246.991 343.663 247.51C343.701 247.984 343.625 248.46 343.44 248.899C343.302 249.191 343.103 249.45 342.856 249.659C342.609 249.868 342.32 250.02 342.009 250.107C341.777 250.126 341.544 250.105 341.32 250.043V250.043Z" fill="#E0E0E0"/>
<path d="M261.698 266.948L234.435 266.824L234.412 271.827L261.675 271.951L261.698 266.948Z" fill="#FD7401"/>
<path opacity="0.1" d="M261.698 266.948L234.435 266.824L234.412 271.827L261.675 271.951L261.698 266.948Z" fill="black"/>
<path d="M341.108 297.648C341.322 297.623 341.535 297.584 341.744 297.531C342.039 297.438 342.31 297.282 342.54 297.076C342.771 296.869 342.954 296.616 343.08 296.334C343.246 295.905 343.311 295.445 343.27 294.987C343.27 294.468 343.27 293.927 343.27 293.302C343.27 292.083 343.27 290.673 343.27 289.062V282.331C343.321 281.844 343.213 281.353 342.963 280.932C342.695 280.508 342.286 280.192 341.808 280.041C341.28 279.943 340.742 279.911 340.207 279.946H324.954L236.603 279.617C236.127 279.619 235.669 279.792 235.312 280.106C234.955 280.42 234.724 280.853 234.663 281.324C234.663 282.384 234.663 283.444 234.663 284.504C234.663 286.624 234.663 288.744 234.663 290.864C234.663 291.924 234.663 292.984 234.663 294.044C234.623 294.536 234.645 295.031 234.726 295.517C234.853 295.95 235.127 296.325 235.5 296.577C235.889 296.831 236.351 296.951 236.815 296.917H241.426L264.883 297.044L304.602 297.288L331.377 297.5L338.659 297.584H340.557C340.981 297.584 341.193 297.584 341.193 297.584C341.193 297.584 340.981 297.584 340.557 297.584H338.659H331.377H304.602L264.883 297.468L241.426 297.372H236.815C236.241 297.411 235.67 297.258 235.193 296.938C234.71 296.604 234.358 296.113 234.196 295.549C234.101 295.011 234.073 294.462 234.112 293.917C234.112 292.857 234.112 291.797 234.112 290.737C234.112 288.617 234.112 286.497 234.112 284.377C234.112 283.317 234.112 282.257 234.112 281.144C234.187 280.539 234.48 279.982 234.937 279.578C235.393 279.173 235.982 278.95 236.592 278.95L324.943 279.437L340.196 279.554C340.764 279.519 341.335 279.558 341.892 279.67C342.443 279.85 342.908 280.228 343.196 280.73C343.47 281.197 343.589 281.739 343.535 282.278C343.535 282.776 343.535 283.274 343.535 283.751C343.535 285.67 343.535 287.43 343.535 289.051C343.535 290.673 343.535 292.041 343.535 293.291C343.535 293.896 343.535 294.457 343.535 294.977C343.576 295.451 343.5 295.928 343.313 296.365C343.175 296.658 342.976 296.917 342.729 297.126C342.482 297.334 342.193 297.487 341.882 297.574C341.633 297.659 341.368 297.684 341.108 297.648V297.648Z" fill="#E0E0E0"/>
<path d="M291.814 238.666L241.952 238.44L241.93 243.114L291.792 243.341L291.814 238.666Z" fill="#FD7401"/>
<path opacity="0.2" d="M291.814 238.666L241.952 238.44L241.93 243.114L291.792 243.341L291.814 238.666Z" fill="white"/>
<path d="M246.461 288.998C246.429 289.425 246.274 289.833 246.013 290.171C245.752 290.51 245.397 290.765 244.993 290.904C244.589 291.043 244.152 291.06 243.738 290.953C243.324 290.847 242.951 290.621 242.664 290.304C242.377 289.987 242.189 289.593 242.125 289.17C242.06 288.747 242.12 288.315 242.299 287.927C242.477 287.538 242.766 287.211 243.129 286.985C243.492 286.759 243.913 286.644 244.341 286.656C244.931 286.689 245.485 286.953 245.882 287.392C246.279 287.83 246.487 288.408 246.461 288.998V288.998Z" fill="#FD7401"/>
<path d="M253.213 289.03C253.234 289.329 253.193 289.629 253.093 289.911C252.993 290.194 252.836 290.453 252.631 290.672C252.427 290.891 252.18 291.065 251.905 291.185C251.63 291.304 251.334 291.366 251.034 291.366C250.735 291.366 250.438 291.304 250.164 291.185C249.889 291.065 249.642 290.891 249.438 290.672C249.233 290.453 249.076 290.194 248.976 289.911C248.876 289.629 248.835 289.329 248.856 289.03C248.835 288.731 248.876 288.431 248.976 288.149C249.076 287.867 249.233 287.608 249.438 287.389C249.642 287.17 249.889 286.995 250.164 286.876C250.438 286.756 250.735 286.695 251.034 286.695C251.334 286.695 251.63 286.756 251.905 286.876C252.18 286.995 252.427 287.17 252.631 287.389C252.836 287.608 252.993 287.867 253.093 288.149C253.193 288.431 253.234 288.731 253.213 289.03V289.03Z" fill="#FD7401"/>
<path d="M259.976 289.062C259.944 289.488 259.789 289.896 259.528 290.235C259.267 290.574 258.912 290.828 258.508 290.967C258.104 291.106 257.667 291.123 257.253 291.017C256.839 290.91 256.466 290.684 256.179 290.367C255.892 290.05 255.704 289.656 255.64 289.234C255.575 288.811 255.635 288.379 255.814 287.99C255.992 287.602 256.281 287.274 256.644 287.048C257.007 286.822 257.428 286.708 257.856 286.719C258.445 286.755 258.997 287.02 259.394 287.458C259.79 287.896 259.999 288.472 259.976 289.062Z" fill="#FD7401"/>
<path d="M266.728 289.094C266.697 289.52 266.541 289.928 266.28 290.267C266.019 290.605 265.664 290.86 265.26 290.999C264.856 291.138 264.42 291.155 264.006 291.049C263.591 290.942 263.218 290.716 262.931 290.399C262.644 290.082 262.457 289.688 262.392 289.266C262.327 288.843 262.387 288.411 262.566 288.022C262.745 287.634 263.033 287.306 263.396 287.08C263.759 286.854 264.18 286.74 264.608 286.751C265.197 286.787 265.749 287.052 266.146 287.49C266.542 287.928 266.751 288.504 266.728 289.094Z" fill="#FD7401"/>
<path d="M273.48 289.115C273.451 289.542 273.297 289.951 273.037 290.291C272.777 290.631 272.423 290.888 272.019 291.028C271.615 291.169 271.178 291.188 270.763 291.082C270.348 290.976 269.974 290.751 269.686 290.435C269.398 290.118 269.209 289.724 269.144 289.301C269.078 288.878 269.138 288.445 269.317 288.056C269.495 287.667 269.784 287.339 270.147 287.112C270.51 286.886 270.932 286.772 271.36 286.783C271.948 286.819 272.498 287.082 272.894 287.518C273.29 287.954 273.5 288.527 273.48 289.115Z" fill="#FD7401"/>
<path d="M280.243 289.147C280.214 289.572 280.061 289.979 279.804 290.318C279.547 290.657 279.196 290.914 278.795 291.056C278.393 291.199 277.959 291.221 277.546 291.119C277.132 291.018 276.757 290.798 276.467 290.487C276.176 290.175 275.984 289.786 275.912 289.366C275.84 288.946 275.893 288.515 276.063 288.125C276.233 287.734 276.514 287.403 276.871 287.17C277.227 286.937 277.644 286.814 278.07 286.815C278.667 286.837 279.231 287.095 279.638 287.532C280.045 287.969 280.263 288.55 280.243 289.147V289.147Z" fill="#FD7401"/>
<path d="M286.995 289.179C287.016 289.477 286.975 289.777 286.875 290.06C286.775 290.342 286.618 290.601 286.414 290.82C286.209 291.039 285.962 291.214 285.687 291.333C285.413 291.453 285.116 291.514 284.817 291.514C284.517 291.514 284.221 291.453 283.946 291.333C283.671 291.214 283.424 291.039 283.22 290.82C283.015 290.601 282.858 290.342 282.758 290.06C282.658 289.777 282.617 289.477 282.638 289.179C282.617 288.88 282.658 288.58 282.758 288.298C282.858 288.015 283.015 287.756 283.22 287.537C283.424 287.318 283.671 287.144 283.946 287.024C284.221 286.905 284.517 286.843 284.817 286.843C285.116 286.843 285.413 286.905 285.687 287.024C285.962 287.144 286.209 287.318 286.414 287.537C286.618 287.756 286.775 288.015 286.875 288.298C286.975 288.58 287.016 288.88 286.995 289.179Z" fill="#FD7401"/>
<path d="M293.747 289.21C293.718 289.635 293.566 290.042 293.308 290.382C293.051 290.721 292.7 290.977 292.299 291.12C291.898 291.262 291.464 291.284 291.05 291.183C290.636 291.082 290.261 290.862 289.971 290.551C289.681 290.239 289.488 289.85 289.416 289.43C289.344 289.01 289.397 288.579 289.567 288.188C289.738 287.798 290.018 287.466 290.375 287.233C290.732 287.001 291.148 286.877 291.574 286.878C292.171 286.901 292.735 287.158 293.142 287.595C293.55 288.033 293.767 288.613 293.747 289.21V289.21Z" fill="#FD7401"/>
<path d="M300.499 289.242C300.47 289.669 300.316 290.078 300.056 290.418C299.797 290.759 299.443 291.015 299.038 291.155C298.634 291.296 298.197 291.315 297.783 291.209C297.368 291.104 296.993 290.879 296.705 290.562C296.417 290.245 296.229 289.851 296.163 289.428C296.098 289.005 296.158 288.572 296.336 288.183C296.514 287.794 296.803 287.466 297.166 287.24C297.53 287.013 297.952 286.899 298.379 286.91C298.967 286.946 299.518 287.209 299.914 287.645C300.31 288.081 300.52 288.654 300.499 289.242V289.242Z" fill="#FD7401"/>
<g opacity="0.2">
<path d="M246.461 288.998C246.429 289.425 246.274 289.833 246.013 290.171C245.752 290.51 245.397 290.765 244.993 290.904C244.589 291.043 244.152 291.06 243.738 290.953C243.324 290.847 242.951 290.621 242.664 290.304C242.377 289.987 242.189 289.593 242.125 289.17C242.06 288.747 242.12 288.315 242.299 287.927C242.477 287.538 242.766 287.211 243.129 286.985C243.492 286.759 243.913 286.644 244.341 286.656C244.931 286.689 245.485 286.953 245.882 287.392C246.279 287.83 246.487 288.408 246.461 288.998V288.998Z" fill="white"/>
<path d="M253.213 289.03C253.234 289.329 253.193 289.629 253.093 289.911C252.993 290.194 252.836 290.453 252.631 290.672C252.427 290.891 252.18 291.065 251.905 291.185C251.63 291.304 251.334 291.366 251.035 291.366C250.735 291.366 250.439 291.304 250.164 291.185C249.889 291.065 249.642 290.891 249.438 290.672C249.233 290.453 249.076 290.194 248.976 289.911C248.876 289.629 248.835 289.329 248.856 289.03C248.835 288.731 248.876 288.431 248.976 288.149C249.076 287.867 249.233 287.608 249.438 287.389C249.642 287.17 249.889 286.995 250.164 286.876C250.439 286.756 250.735 286.695 251.035 286.695C251.334 286.695 251.63 286.756 251.905 286.876C252.18 286.995 252.427 287.17 252.631 287.389C252.836 287.608 252.993 287.867 253.093 288.149C253.193 288.431 253.234 288.731 253.213 289.03V289.03Z" fill="white"/>
<path d="M259.976 289.062C259.944 289.488 259.789 289.896 259.528 290.235C259.267 290.574 258.912 290.828 258.508 290.967C258.104 291.106 257.667 291.123 257.253 291.017C256.839 290.91 256.466 290.684 256.179 290.367C255.892 290.05 255.704 289.656 255.64 289.234C255.575 288.811 255.635 288.379 255.814 287.99C255.992 287.602 256.281 287.274 256.644 287.048C257.007 286.822 257.428 286.708 257.856 286.719C258.445 286.755 258.997 287.02 259.394 287.458C259.79 287.896 259.999 288.472 259.976 289.062Z" fill="white"/>
<path d="M266.728 289.094C266.697 289.52 266.541 289.928 266.28 290.267C266.019 290.605 265.664 290.86 265.26 290.999C264.856 291.138 264.42 291.155 264.006 291.049C263.591 290.942 263.218 290.716 262.931 290.399C262.644 290.082 262.457 289.688 262.392 289.266C262.327 288.843 262.387 288.411 262.566 288.022C262.745 287.634 263.033 287.306 263.396 287.08C263.759 286.854 264.18 286.74 264.608 286.751C265.197 286.787 265.749 287.052 266.146 287.49C266.542 287.928 266.751 288.504 266.728 289.094Z" fill="white"/>
<path d="M273.48 289.115C273.451 289.542 273.297 289.951 273.037 290.291C272.777 290.631 272.423 290.888 272.019 291.028C271.615 291.169 271.178 291.188 270.763 291.082C270.348 290.976 269.974 290.751 269.686 290.435C269.398 290.118 269.209 289.724 269.144 289.301C269.078 288.878 269.138 288.445 269.317 288.056C269.495 287.667 269.784 287.339 270.147 287.112C270.51 286.886 270.932 286.772 271.36 286.783C271.948 286.819 272.498 287.082 272.894 287.518C273.29 287.954 273.5 288.527 273.48 289.115Z" fill="white"/>
<path d="M280.243 289.147C280.214 289.572 280.061 289.979 279.804 290.318C279.547 290.657 279.196 290.914 278.795 291.056C278.393 291.199 277.959 291.221 277.546 291.12C277.132 291.018 276.757 290.799 276.467 290.487C276.177 290.176 275.984 289.786 275.912 289.366C275.84 288.947 275.893 288.515 276.063 288.125C276.233 287.735 276.514 287.403 276.871 287.17C277.227 286.937 277.644 286.814 278.07 286.815C278.667 286.837 279.231 287.095 279.638 287.532C280.045 287.969 280.263 288.55 280.243 289.147V289.147Z" fill="white"/>
<path d="M286.995 289.179C287.016 289.477 286.975 289.777 286.875 290.06C286.775 290.342 286.618 290.601 286.414 290.82C286.209 291.039 285.962 291.214 285.687 291.333C285.413 291.453 285.116 291.514 284.817 291.514C284.517 291.514 284.221 291.453 283.946 291.333C283.671 291.214 283.424 291.039 283.22 290.82C283.016 290.601 282.859 290.342 282.758 290.06C282.658 289.777 282.618 289.477 282.638 289.179C282.618 288.88 282.658 288.58 282.758 288.298C282.859 288.015 283.016 287.756 283.22 287.537C283.424 287.318 283.671 287.144 283.946 287.024C284.221 286.905 284.517 286.843 284.817 286.843C285.116 286.843 285.413 286.905 285.687 287.024C285.962 287.144 286.209 287.318 286.414 287.537C286.618 287.756 286.775 288.015 286.875 288.298C286.975 288.58 287.016 288.88 286.995 289.179Z" fill="white"/>
<path d="M293.747 289.21C293.718 289.635 293.566 290.042 293.309 290.382C293.051 290.721 292.7 290.977 292.299 291.12C291.898 291.262 291.464 291.284 291.05 291.183C290.636 291.082 290.261 290.862 289.971 290.551C289.681 290.239 289.488 289.85 289.416 289.43C289.345 289.01 289.397 288.579 289.568 288.188C289.738 287.798 290.019 287.466 290.375 287.233C290.732 287.001 291.148 286.877 291.574 286.878C292.171 286.901 292.735 287.158 293.143 287.595C293.55 288.033 293.767 288.613 293.747 289.21V289.21Z" fill="white"/>
<path d="M300.499 289.242C300.47 289.669 300.316 290.078 300.056 290.418C299.796 290.759 299.442 291.015 299.038 291.156C298.634 291.296 298.197 291.315 297.782 291.209C297.368 291.104 296.993 290.879 296.705 290.562C296.417 290.245 296.229 289.851 296.163 289.428C296.097 289.005 296.158 288.572 296.336 288.183C296.514 287.794 296.803 287.466 297.166 287.24C297.53 287.013 297.951 286.899 298.379 286.91C298.967 286.946 299.517 287.21 299.914 287.645C300.31 288.081 300.52 288.654 300.499 289.242V289.242Z" fill="white"/>
</g>
<path d="M290.906 136.221C291.643 135.896 292.267 135.363 292.703 134.686C293.138 134.009 293.365 133.22 293.355 132.415C293.382 131.892 293.303 131.369 293.122 130.878C292.941 130.386 292.661 129.937 292.301 129.557C291.94 129.177 291.506 128.875 291.025 128.668C290.544 128.461 290.026 128.355 289.502 128.355C288.978 128.355 288.46 128.461 287.979 128.668C287.498 128.875 287.063 129.177 286.703 129.557C286.342 129.937 286.063 130.386 285.882 130.878C285.701 131.369 285.621 131.892 285.649 132.415C285.633 133.228 285.858 134.027 286.295 134.712C286.733 135.397 287.364 135.936 288.108 136.263C282.172 137.153 282.437 143.598 282.437 143.598L296.471 143.662C296.471 143.662 296.8 137.1 290.906 136.221Z" fill="#FD7401"/>
<path opacity="0.1" d="M290.906 136.221C291.643 135.896 292.267 135.363 292.703 134.686C293.138 134.009 293.365 133.22 293.355 132.415C293.382 131.892 293.303 131.369 293.122 130.878C292.941 130.386 292.661 129.937 292.301 129.557C291.94 129.177 291.506 128.875 291.025 128.668C290.544 128.461 290.026 128.355 289.502 128.355C288.978 128.355 288.46 128.461 287.979 128.668C287.498 128.875 287.063 129.177 286.703 129.557C286.342 129.937 286.063 130.386 285.882 130.878C285.701 131.369 285.621 131.892 285.649 132.415C285.633 133.228 285.858 134.027 286.295 134.712C286.733 135.397 287.364 135.936 288.108 136.263C282.172 137.153 282.437 143.598 282.437 143.598L296.471 143.662C296.471 143.662 296.8 137.1 290.906 136.221Z" fill="black"/>
<path d="M313.712 147.819L263.691 147.592L263.664 153.57L313.685 153.797L313.712 147.819Z" fill="#FD7401"/>
<path opacity="0.2" d="M313.712 147.819L263.691 147.592L263.664 153.57L313.685 153.797L313.712 147.819Z" fill="white"/>
<path d="M129.818 178.801H129.32L127.878 178.907C127.098 178.954 126.322 179.056 125.557 179.214C125.061 179.284 124.569 179.379 124.084 179.5L122.441 179.956C119.644 180.814 117.006 182.121 114.628 183.825C111.487 186.105 108.865 189.024 106.933 192.39C105.797 194.33 104.894 196.397 104.24 198.549C103.554 200.887 103.159 203.301 103.064 205.735C103.001 207.015 103.022 208.296 103.127 209.573C103.127 210.219 103.308 210.866 103.392 211.523C103.464 212.186 103.588 212.841 103.763 213.484C104.717 217.738 106.651 221.709 109.411 225.083C112.172 228.456 115.683 231.138 119.663 232.914C122.545 234.157 125.633 234.851 128.769 234.96C132.008 235.138 135.25 234.673 138.309 233.592L139.242 233.242H139.369L139.475 233.306L152.841 240.09L152.449 240.429C151.018 235.998 149.64 231.705 148.305 227.582V227.423L148.421 227.306C151.664 224.041 154.071 220.041 155.438 215.646C156.677 211.629 157.038 207.392 156.498 203.223C156.018 199.518 154.827 195.94 152.99 192.687C151.406 189.892 149.364 187.384 146.948 185.267C144.954 183.591 142.748 182.187 140.386 181.09C138.599 180.32 136.738 179.734 134.832 179.341L132.712 178.992L131.175 178.875L130.242 178.811H129.924C130.03 178.8 130.137 178.8 130.242 178.811H131.186L132.723 178.875L134.843 179.182C136.773 179.546 138.659 180.111 140.471 180.868C142.874 181.951 145.12 183.353 147.149 185.034C149.61 187.141 151.696 189.65 153.318 192.454C155.207 195.742 156.435 199.368 156.933 203.128C157.518 207.361 157.182 211.671 155.947 215.763C154.571 220.249 152.126 224.334 148.824 227.667L148.888 227.391C150.223 231.515 151.612 235.808 153.053 240.228L153.255 240.874L152.651 240.567L139.284 233.794H139.517L138.563 234.143C135.446 235.24 132.143 235.716 128.843 235.543C125.639 235.421 122.487 234.702 119.547 233.423C113.939 231.021 109.273 226.847 106.265 221.54C104.881 219.089 103.869 216.445 103.265 213.696C103.1 213.037 102.976 212.368 102.894 211.693C102.809 211.025 102.672 210.368 102.64 209.71C102.353 205.939 102.752 202.146 103.816 198.517C104.486 196.336 105.415 194.243 106.583 192.284C108.561 188.887 111.238 185.95 114.438 183.666C116.854 181.958 119.537 180.661 122.377 179.829L124.041 179.405C124.531 179.291 125.026 179.203 125.525 179.14C126.299 178.997 127.082 178.912 127.868 178.886L129.32 178.833C129.485 178.81 129.652 178.8 129.818 178.801Z" fill="#FD7401"/>
<path d="M135.86 203.52H133.899L129.659 197.563V193.651C129.659 193.651 126.628 193.461 126.988 198.58C127.348 203.7 126.988 202.396 126.988 202.396C126.988 202.396 120.554 202.396 120.024 202.979C119.494 203.562 119.462 209.774 119.388 213.24C119.347 214.076 119.587 214.901 120.069 215.585C120.551 216.268 121.248 216.771 122.048 217.014C122.273 217.076 122.504 217.108 122.737 217.109C124.349 217.109 132.542 215.805 132.542 215.805H135.924L135.86 203.52Z" fill="#FD7401"/>
<path d="M141.468 202.471L140.259 215.869H136.91V202.746L141.468 202.471Z" fill="#FD7401"/>
<path d="M181.419 475.24V466.177L165.169 466.061L165.031 479.767L166.038 479.841C170.522 480.127 188.85 480.551 191.86 479.618C195.21 478.579 181.419 475.24 181.419 475.24Z" fill="#FD7401"/>
<path d="M192.242 478.77C192.242 478.919 186.157 479.046 178.663 479.046C171.169 479.046 165.084 478.919 165.084 478.77C165.084 478.622 171.169 478.495 178.663 478.495C186.157 478.495 192.242 478.622 192.242 478.77Z" fill="#263238"/>
<path d="M181.705 477.095C181.567 477.021 181.705 476.544 182.034 476.035C182.362 475.527 182.808 475.315 182.914 475.421C183.02 475.527 182.797 475.929 182.479 476.364C182.161 476.799 181.843 477.17 181.705 477.095Z" fill="#263238"/>
<path d="M182.744 477.689C182.596 477.689 182.67 477.095 182.988 476.534C183.306 475.972 183.73 475.633 183.846 475.717C183.963 475.802 183.772 476.279 183.475 476.777C183.179 477.276 182.882 477.742 182.744 477.689Z" fill="#263238"/>
<path d="M169.982 478.728C169.918 478.728 169.674 478.537 169.324 478.134C168.897 477.616 168.422 477.141 167.904 476.714C167.395 476.307 166.788 476.04 166.144 475.94C165.646 475.876 165.328 475.94 165.296 475.876C165.265 475.813 165.572 475.59 166.155 475.548C166.924 475.531 167.675 475.787 168.275 476.269C168.837 476.727 169.311 477.283 169.674 477.912C169.918 478.378 170.045 478.685 169.982 478.728Z" fill="#263238"/>
<path d="M181.758 475.389C181.832 475.516 181.557 475.834 181.09 476.004C180.624 476.173 180.211 476.11 180.189 476.004C180.168 475.898 180.497 475.675 180.9 475.527C181.302 475.378 181.673 475.262 181.758 475.389Z" fill="#263238"/>
<path d="M181.504 474.509C181.504 474.668 181.08 474.795 180.529 474.806C179.977 474.816 179.543 474.689 179.553 474.541C179.564 474.392 179.999 474.255 180.529 474.244C181.059 474.233 181.483 474.361 181.504 474.509Z" fill="#263238"/>
<path d="M221.434 475.24V466.177L205.184 466.061L205.046 479.629L206.053 479.703C210.537 479.989 228.875 480.551 231.875 479.618C235.225 478.579 221.434 475.24 221.434 475.24Z" fill="#FD7401"/>
<path d="M232.257 478.791C232.257 478.94 226.183 479.067 218.678 479.067C211.173 479.067 205.11 478.94 205.11 478.791C205.11 478.643 211.184 478.516 218.678 478.516C226.172 478.516 232.257 478.643 232.257 478.791Z" fill="#263238"/>
<path d="M221.72 477.095C221.593 477.021 221.72 476.544 222.049 476.035C222.378 475.527 222.823 475.315 222.929 475.421C223.035 475.527 222.812 475.929 222.494 476.364C222.176 476.799 221.858 477.17 221.72 477.095Z" fill="#263238"/>
<path d="M222.759 477.689C222.621 477.689 222.685 477.095 223.013 476.534C223.342 475.972 223.755 475.633 223.872 475.717C223.989 475.802 223.787 476.279 223.49 476.777C223.194 477.276 222.907 477.742 222.759 477.689Z" fill="#263238"/>
<path d="M209.997 478.728C209.933 478.728 209.7 478.537 209.339 478.134C208.912 477.616 208.437 477.141 207.919 476.714C207.41 476.307 206.803 476.04 206.159 475.94C205.672 475.876 205.343 475.94 205.311 475.876C205.28 475.813 205.587 475.59 206.17 475.548C206.939 475.531 207.69 475.787 208.29 476.269C208.855 476.724 209.33 477.281 209.689 477.912C209.933 478.378 210.06 478.685 209.997 478.728Z" fill="#263238"/>
<path d="M221.773 475.389C221.847 475.516 221.572 475.834 221.105 476.004C220.639 476.173 220.226 476.11 220.204 476.004C220.183 475.898 220.512 475.675 220.915 475.527C221.317 475.378 221.688 475.262 221.773 475.389Z" fill="#263238"/>
<path d="M221.54 474.509C221.54 474.668 221.116 474.795 220.565 474.806C220.014 474.816 219.59 474.689 219.6 474.541C219.611 474.392 220.035 474.255 220.565 474.244C221.095 474.233 221.54 474.361 221.54 474.509Z" fill="#263238"/>
<path d="M281.303 206.106C280.879 205.672 279.829 205.884 279.829 205.884C279.935 205.274 279.935 204.65 279.829 204.039C279.639 203.446 278.303 203.562 278.303 203.562C278.241 203.063 278.241 202.557 278.303 202.057C278.314 201.946 278.29 201.835 278.235 201.738C278.18 201.642 278.096 201.564 277.996 201.517C277.364 201.259 276.685 201.136 276.003 201.156C275.187 200.573 278.494 195.941 279.723 194.457C280.953 192.973 280.73 191.818 279.639 191.818C278.886 191.818 275.028 196.27 273.84 197.764C272.653 199.259 269.505 203.414 269.399 200.096C269.293 196.778 267.957 194.277 267.12 193.853C266.283 193.429 265.392 194.425 265.848 195.347C266.248 196.395 266.498 197.494 266.59 198.612C266.705 199.503 266.666 200.406 266.473 201.283C266.122 202.915 265.644 204.517 265.042 206.075H264.958C264.958 206.075 241.828 228.26 240.154 229.84C238.659 231.26 208.597 228.154 202.566 227.518C200.516 227.219 198.447 227.077 196.376 227.094C193.757 227.211 193.291 227.582 190.683 227.614C184.098 227.687 177.528 228.265 171.031 229.342C168.089 229.842 165.341 231.14 163.087 233.096C160.832 235.051 159.158 237.588 158.247 240.429C152.174 259.403 138.415 304.315 135.987 329.543C134.153 332.87 132.497 336.291 131.027 339.794C129.32 344.436 129.733 344.595 130.306 344.701C131.853 344.988 133.613 336.656 134.27 338.67C134.927 340.684 130.931 348.602 132.553 348.835C134.673 349.132 136.358 340.355 136.56 339.656C136.761 338.956 137.811 339.179 137.62 339.836C137.312 340.769 134.334 350.659 136.411 350.977C137.556 351.146 137.683 349.058 137.683 349.058C137.683 349.058 139.803 339.592 140.768 339.783C141.733 339.974 140.704 345.56 140.217 347.426C139.729 349.291 140.408 350.235 141.404 349.779C142.082 349.461 143.704 343.79 144.149 341.945C144.595 340.101 145.708 334.992 147.202 337.949C148.697 340.907 150.965 342.624 151.898 342.666C152.108 342.642 152.306 342.555 152.467 342.418C152.627 342.28 152.743 342.097 152.799 341.893C152.855 341.689 152.848 341.473 152.78 341.272C152.712 341.072 152.586 340.897 152.417 340.769C151.615 339.985 150.926 339.093 150.372 338.119C149.877 337.36 149.518 336.52 149.312 335.638C148.884 333.88 148.636 332.083 148.57 330.275L148.4 329.215C150.774 317.459 157.611 282.956 167.48 260.919L171.529 269.251L173.289 275.42L162.498 302.058L208.523 301.453L201.654 275.017L209.997 247.457C219.017 247.658 242.178 247.998 246.037 246.249C250.891 244.129 276.003 212.413 276.003 212.413C277.64 211.142 279.207 209.783 280.699 208.343C280.699 208.343 282.225 207.06 281.303 206.106Z" fill="#FFBE9D"/>
<path d="M160.473 282.373C161.809 277.815 168.667 255.28 168.667 255.28C168.667 255.28 172.038 273.65 171.148 275.865C170.329 277.762 169.361 279.59 168.254 281.335C160.473 293.175 161.491 299.1 161.491 299.1L208.502 297.669C208.608 291.097 204.718 275.812 203.912 273.374C203.107 270.936 205.788 262.954 205.788 262.954C205.788 262.954 211.088 257.559 210.898 254.782C210.797 252.287 210.488 249.805 209.975 247.362L238.595 248.422L237.694 229.024L196.588 224.911C195.157 228.949 182.214 226.967 182.214 226.967C168.243 227.434 167.374 229.999 161.565 234.514C155.756 239.03 146.142 277.784 146.142 277.784L160.473 282.373Z" fill="#FD7401"/>
<path d="M188.267 277.784C187.452 277.929 186.622 277.972 185.797 277.911C184.26 277.911 182.15 277.805 179.829 277.572C177.508 277.338 175.409 277.01 173.914 276.713C173.09 276.607 172.282 276.4 171.508 276.098C172.337 276.098 173.164 276.177 173.978 276.331C175.483 276.522 177.571 276.787 179.882 277.02C182.193 277.254 184.292 277.413 185.807 277.519C186.634 277.529 187.457 277.618 188.267 277.784V277.784Z" fill="#263238"/>
<path d="M191.489 273.787C190.674 274.187 189.812 274.482 188.924 274.667C184.695 275.778 180.332 276.296 175.96 276.204C175.055 276.234 174.151 276.148 173.268 275.95C174.16 275.837 175.06 275.791 175.96 275.812C177.624 275.759 179.914 275.642 182.437 275.346C184.959 275.049 187.207 274.625 188.797 274.286C189.68 274.05 190.58 273.883 191.489 273.787V273.787Z" fill="#263238"/>
<path d="M207.304 255.958C207.283 256.766 207.173 257.57 206.976 258.354C206.7 259.827 206.276 261.841 205.735 264.046C205.195 266.251 204.675 268.286 204.209 269.664C204.021 270.453 203.744 271.217 203.382 271.943C203.441 271.137 203.591 270.341 203.827 269.569C204.23 267.915 204.686 266.007 205.195 263.919C205.704 261.831 206.191 259.923 206.594 258.269C206.737 257.473 206.976 256.697 207.304 255.958V255.958Z" fill="#263238"/>
<path d="M160.972 279.67C158.519 279.292 156.099 278.728 153.732 277.985C151.313 277.419 148.939 276.675 146.63 275.759C149.081 276.144 151.501 276.707 153.87 277.444C156.289 278.008 158.663 278.752 160.972 279.67V279.67Z" fill="#263238"/>
<path d="M210.484 247.128C210.084 247.197 209.676 247.197 209.276 247.128C208.169 247.015 207.081 246.755 206.043 246.355C204.309 245.703 202.73 244.696 201.409 243.398C200.087 242.1 199.051 240.54 198.368 238.818C197.614 236.924 197.291 234.885 197.425 232.85C197.472 231.172 197.974 229.538 198.877 228.123C199.512 227.169 200.461 226.468 201.559 226.14C201.852 226.059 202.156 226.02 202.46 226.024C202.672 226.024 202.778 226.024 202.778 226.024C202.778 226.024 202.333 226.024 201.623 226.31C200.615 226.682 199.761 227.38 199.195 228.292C197.754 230.561 197.351 234.705 198.888 238.574C199.603 240.398 200.723 242.037 202.163 243.365C203.343 244.453 204.702 245.328 206.181 245.952C207.568 246.5 209.011 246.895 210.484 247.128V247.128Z" fill="#263238"/>
<path d="M235.193 248.04C234.928 244.789 234.843 241.527 234.938 238.267C234.855 235.01 234.954 231.75 235.235 228.504C235.501 231.751 235.586 235.01 235.49 238.267C235.579 241.527 235.48 244.791 235.193 248.04V248.04Z" fill="#263238"/>
<path d="M196.312 226.098C196.429 223.734 196.672 221.063 196.672 221.063C196.672 221.063 202.524 220.416 202.873 214.374C203.223 208.332 202.873 194.393 202.873 194.393L192.273 188.966L180.507 198.22L182.32 228.43L193.111 229.119C193.936 229.142 194.736 228.837 195.336 228.27C195.936 227.704 196.287 226.923 196.312 226.098V226.098Z" fill="#FFBE9D"/>
<path d="M197.361 209.594C197.361 209.594 197.361 209.71 197.266 209.848C197.187 209.948 197.085 210.027 196.969 210.079C196.852 210.131 196.725 210.153 196.598 210.145C195.92 210.145 195.263 209.361 195.029 208.449C194.919 208.007 194.919 207.545 195.029 207.103C195.051 206.91 195.121 206.725 195.232 206.566C195.343 206.407 195.492 206.278 195.665 206.191C195.808 206.132 195.968 206.132 196.111 206.191C196.216 206.244 196.302 206.329 196.354 206.435C196.429 206.615 196.354 206.732 196.354 206.721C196.354 206.711 196.354 206.615 196.248 206.509C196.193 206.433 196.112 206.38 196.02 206.361C195.928 206.341 195.832 206.356 195.75 206.403C195.62 206.482 195.512 206.592 195.436 206.724C195.36 206.855 195.319 207.004 195.316 207.156C195.226 207.55 195.226 207.959 195.316 208.354C195.528 209.18 196.1 209.848 196.609 209.912C196.708 209.925 196.81 209.918 196.906 209.891C197.003 209.863 197.093 209.816 197.171 209.753C197.298 209.668 197.34 209.583 197.361 209.594Z" fill="#EB996E"/>
<path d="M206.509 191.129C205.693 188.351 202.736 186.973 200.043 186.21C195.941 185.044 191.51 184.535 187.503 186.009C183.497 187.482 178.684 190.069 178.684 194.489C176.32 194.298 174.964 196.365 174.031 198.93C173.434 200.493 173.077 202.137 172.971 203.806V203.806C172.674 209.594 171.052 217.586 167.3 221.826C165.18 224.19 162.244 225.822 161.035 228.769C159.975 231.324 160.526 234.355 159.541 236.942C158.661 239.221 156.721 240.843 155.301 242.825C153.854 245.073 153.002 247.653 152.826 250.321C152.65 252.99 153.155 255.659 154.294 258.078C155.441 260.436 157.056 262.535 159.04 264.248C161.025 265.961 163.337 267.252 165.837 268.042C170.788 269.549 176.068 269.6 181.048 268.191C184.785 267.297 188.272 265.568 191.245 263.134C194.288 260.65 196.378 257.189 197.16 253.34C197.913 249.015 196.704 244.616 195.803 240.313C192.984 226.713 193.789 226.003 197.351 213.378C197.436 213.155 197.478 212.922 197.542 212.7C197.605 212.477 197.637 212.371 197.679 212.201C197.781 211.702 197.834 211.195 197.838 210.686C197.318 210.879 196.754 210.92 196.211 210.804C195.668 210.687 195.17 210.418 194.775 210.028C194.379 209.613 194.103 209.098 193.976 208.538C193.849 207.978 193.876 207.394 194.054 206.848C194.304 206.251 194.677 205.714 195.148 205.27C195.619 204.826 196.178 204.487 196.789 204.273C197.966 203.785 199.227 203.531 200.382 202.99C202.831 201.824 204.527 199.407 205.682 196.874C206.632 195.118 206.926 193.081 206.509 191.129V191.129Z" fill="#263238"/>
<path d="M197.785 209.88C198.009 210.211 198.194 210.567 198.337 210.94C198.655 211.608 199.079 212.551 199.545 213.643L199.63 213.844H199.407L198.347 213.94C197.616 213.94 197.001 214.078 196.28 214.067C196.217 214.053 196.159 214.023 196.111 213.981C196.063 213.938 196.026 213.884 196.005 213.823C195.973 213.727 195.973 213.623 196.005 213.526C196.029 213.384 196.061 213.242 196.1 213.102L196.291 212.35C196.387 211.848 196.536 211.357 196.736 210.887C196.716 211.399 196.642 211.907 196.513 212.403L196.365 213.155C196.312 213.41 196.217 213.802 196.365 213.77C196.895 213.77 197.648 213.654 198.347 213.611L199.407 213.516L199.269 213.749C198.814 212.689 198.432 211.693 198.209 211.004C198.014 210.652 197.871 210.273 197.785 209.88V209.88Z" fill="#FD7401"/>
<path d="M161.491 299.1L208.502 297.669L228.96 377.53L225.197 469.135H200.34L203.382 379.48L185.203 323.883L188.002 472.686L162.88 473.057L160.24 333.19C160.124 329.3 158.852 320.533 159.329 316.675L161.491 299.1Z" fill="#263238"/>
<path d="M191.457 325.017C190.688 325.066 189.915 325.019 189.157 324.879C187.737 324.71 185.797 324.413 183.666 323.989C181.536 323.565 179.628 323.077 178.25 322.685C177.513 322.523 176.8 322.267 176.13 321.922C176.13 321.763 179.585 322.59 183.825 323.448C188.065 324.307 191.478 324.858 191.457 325.017Z" fill="#455A64"/>
<path d="M224.943 464.11C224.943 464.259 219.314 464.386 212.371 464.386C205.428 464.386 199.789 464.259 199.789 464.11C199.789 463.962 205.417 463.835 212.371 463.835C219.325 463.835 224.943 463.951 224.943 464.11Z" fill="#455A64"/>
<path d="M187.779 468.817C187.779 468.976 182.309 469.092 175.568 469.092C168.826 469.092 163.367 468.976 163.367 468.817C163.367 468.658 168.837 468.541 175.568 468.541C182.299 468.541 187.779 468.668 187.779 468.817Z" fill="#455A64"/>
<path d="M184.535 468.435C184.387 468.435 183.73 435.925 183.062 395.825C182.394 355.725 182.002 323.194 182.14 323.194C182.278 323.194 182.956 355.694 183.613 395.815C184.27 435.936 184.694 468.435 184.535 468.435Z" fill="#455A64"/>
<path d="M221.604 464.11C221.592 463.966 221.592 463.82 221.604 463.676V462.404C221.604 461.259 221.688 459.616 221.752 457.528C221.9 453.288 222.112 447.129 222.377 439.582C222.95 424.403 223.755 403.478 224.635 380.381C224.635 380.158 224.635 379.946 224.635 379.756V379.83C219.07 357.57 214.035 337.366 210.378 322.749L206.138 305.46C205.651 303.436 205.28 301.856 205.015 300.754C204.887 300.234 204.803 299.832 204.728 299.524C204.687 299.386 204.662 299.244 204.654 299.1C204.709 299.234 204.752 299.372 204.781 299.514C204.866 299.81 204.972 300.213 205.121 300.722C205.407 301.782 205.82 303.393 206.35 305.407C207.41 309.499 208.905 315.392 210.77 322.653C214.459 337.26 219.547 357.411 225.186 379.703V379.777C225.186 379.968 225.186 380.19 225.186 380.402C224.243 403.5 223.384 424.413 222.759 439.593C222.43 447.15 222.155 453.267 221.964 457.528C221.858 459.648 221.773 461.259 221.72 462.404C221.72 462.944 221.657 463.368 221.646 463.676C221.648 463.822 221.633 463.967 221.604 464.11V464.11Z" fill="#455A64"/>
<path d="M213.495 377.89C211.709 378.477 209.87 378.885 208.004 379.109C205.714 379.501 203.764 379.777 202.884 379.819V379.607C203.17 379.692 203.319 379.745 203.319 379.787C203.319 379.83 203.138 379.787 202.842 379.787H202.206L202.842 379.597C203.668 379.353 205.619 378.95 207.908 378.537C209.745 378.138 211.616 377.922 213.495 377.89Z" fill="#455A64"/>
<path d="M213.06 380.932C211.407 381.008 209.75 380.933 208.11 380.71C206.454 380.676 204.805 380.495 203.181 380.169C206.493 379.899 209.828 380.156 213.06 380.932V380.932Z" fill="#455A64"/>
<path opacity="0.2" d="M161.29 300.786C161.846 301.501 162.548 302.09 163.348 302.516C164.148 302.941 165.028 303.193 165.932 303.255C167.826 303.48 169.741 303.444 171.625 303.149C183.762 301.803 196.619 300.563 208.502 297.669C193.121 298.528 176.872 298.242 161.491 299.1L161.332 300.415" fill="black"/>
<g opacity="0.2">
<path d="M177.137 322.463L185.807 356.107L185.203 323.883L177.137 322.463Z" fill="black"/>
</g>
</svg>
