<svg width="104" height="79" viewBox="0 0 104 79" fill="none" xmlns="http://www.w3.org/2000/svg">
<path d="M41.9055 36.9956C43.1521 34.4244 44.4026 31.8544 45.644 29.2806C46.9191 26.6347 48.1515 23.9683 49.4706 21.3456C50.147 19.9988 50.4269 18.6225 50.3466 17.133C50.1069 12.7276 46.4267 9.55305 42.0377 10.1036C38.3511 10.5666 35.7465 12.6607 34.045 15.8506C32.9371 17.9267 31.9872 20.085 30.9765 22.2112C30.0409 24.1805 29.0263 26.1138 28.1905 28.1294C28.0894 28.3172 27.9805 28.5024 27.8885 28.694C25.4653 33.7233 23.0318 38.7475 20.628 43.7846C18.3188 48.6209 16.0446 53.474 13.7458 58.3156C13.1212 59.6314 12.9113 61.0039 13.0331 62.4432C13.3817 66.5335 16.9038 69.5395 21.0115 69.1742C24.8977 68.8282 27.584 66.6557 29.2181 63.2921C31.7657 58.048 34.2627 52.7769 36.8077 47.5315C38.5105 44.0212 40.2067 40.5084 41.9055 36.9969V36.9956Z" fill="#FB923C"/>
<path d="M90.7567 57.5258C89.2302 54.4387 87.7556 51.3247 86.2589 48.2235C85.6758 47.0157 85.0888 45.8092 84.5043 44.6026C83.5299 42.5588 82.5619 40.511 81.5809 38.4697C78.7975 32.6828 76.0076 26.8997 73.2202 21.1153C72.4052 19.4226 71.5706 17.7376 70.7802 16.0333C69.75 13.8132 68.182 12.0922 66.0037 10.9551C62.8588 9.31252 59.2615 9.82317 56.7774 12.2208C54.432 14.4833 53.854 17.9318 55.3054 20.9288C59.1281 28.8278 62.9404 36.7307 66.7657 44.6271C68.0084 47.1919 69.277 49.7439 70.534 52.3023C70.5482 52.364 70.5508 52.4322 70.578 52.4888C72.3728 56.2614 74.1208 60.0572 75.9829 63.7964C77.144 66.1284 79.0165 67.7915 81.5019 68.6893C85.6835 70.2007 90.0388 68.2404 91.358 64.2556C92.1251 61.9377 91.8362 59.706 90.758 57.5258H90.7567Z" fill="#FB923C"/>
<path d="M52.6802 27.3409C52.6128 27.2045 52.6024 26.9923 52.3251 26.9961C51.1679 29.3474 49.9926 31.7052 48.8445 34.0745C47.5655 36.7152 46.3112 39.3675 45.0451 42.0146C45.0011 42.088 44.9492 42.1574 44.913 42.2346C42.3498 47.6061 39.7802 52.9737 37.2287 58.3516C36.6611 59.5491 36.4019 60.8238 36.4343 62.1563C36.5393 66.5001 40.3102 69.7492 44.6305 69.1871C47.9789 68.7523 50.3257 66.8551 52.0621 64.0922C52.5415 63.3294 52.8551 62.4856 53.2387 61.6766C54.1471 59.7587 55.0399 57.8345 55.9379 55.9128C57.7598 52.3395 59.2837 48.6274 61.0642 45.0348C61.199 44.7621 61.116 44.5537 60.9994 44.3145C58.225 38.6575 55.4558 32.9979 52.6815 27.3422L52.6802 27.3409Z" fill="#FB923C"/>
</svg>
